<svg width="18" height="18" viewBox="0 0 18 18" fill="none" xmlns="http://www.w3.org/2000/svg">
<g clip-path="url(#clip0_331_133)">
<path d="M13.8634 15.4229H10.3202V16.1281H13.8634V15.4229Z" fill="#7E868E"/>
<path d="M17.5962 13.6082C17.1296 12.8845 15.9438 12.4272 14.5707 11.8967C14.2044 11.7552 13.8254 11.6096 13.4476 11.4538C12.3363 10.9915 11.7775 10.7271 11.5305 10.6033L11.5186 9.31535C11.7327 9.08337 12.1282 8.53055 12.3164 7.45566C12.3939 7.4304 12.4755 7.39165 12.5593 7.33187C12.937 7.06704 13.1921 6.52054 13.2141 6.16729C13.2145 6.15676 13.2746 5.08187 12.8012 4.67431C12.7703 4.64779 12.7382 4.62421 12.7035 4.60358C12.8033 3.80193 12.8321 3.33711 12.8025 3.03734C12.6578 1.54435 11.1959 0 9.0004 0C6.80492 0 5.34296 1.54435 5.19872 3.03607C5.16868 3.33627 5.19745 3.80109 5.29686 4.60358C5.26343 4.62421 5.23002 4.64779 5.19956 4.67431C4.72536 5.08187 4.785 6.15676 4.78627 6.16729C4.80869 6.52138 5.06504 7.06789 5.44153 7.33187C5.52571 7.39165 5.60777 7.4304 5.68392 7.45566C5.87173 8.53055 6.26684 9.08337 6.483 9.31535L6.47031 10.6024C6.22242 10.7275 5.66319 10.9919 4.55234 11.4538C4.17458 11.61 3.79556 11.7552 3.42922 11.8967C2.05694 12.4272 0.871648 12.8849 0.403787 13.6082C-0.0958032 14.3842 -0.00104522 17.4026 0.0230686 18L0.730779 17.971C0.675366 16.5782 0.721896 14.4221 1.00067 13.9897C1.34289 13.4596 2.48081 13.02 3.68431 12.5552C4.05698 12.4116 4.44193 12.2634 4.82435 12.1039C6.55449 11.3868 6.98894 11.1271 7.00628 11.1165L7.17506 11.0146L7.19368 9.17053L7.19029 8.99832L7.05958 8.89054C7.05366 8.88674 6.51811 8.43203 6.34341 7.07967L6.30153 6.67085L5.90473 6.7841C5.77909 6.76768 5.50879 6.36392 5.49398 6.12435C5.47241 5.76647 5.55744 5.34164 5.64542 5.22712L6.10525 5.3227L6.04052 4.82967C5.95846 4.21034 5.8692 3.455 5.90431 3.10512C6.0181 1.92581 7.20679 0.705657 9.0004 0.705657C10.7927 0.705657 11.9827 1.92581 12.0973 3.10554C12.1316 3.45542 12.0423 4.21034 11.9603 4.82967L11.9141 5.29744L12.3541 5.22586C12.4421 5.33828 12.5288 5.76521 12.506 6.12435C12.492 6.3635 12.2217 6.76685 12.1071 6.78621L11.7107 6.67169L11.6574 7.07883C11.4827 8.43203 10.9471 8.88674 10.9467 8.88717L10.8063 8.99411L10.8257 11.0146L10.9945 11.1165C11.0119 11.1271 11.4463 11.3868 13.1756 12.1043C13.5589 12.2626 13.9425 12.4116 14.3144 12.5544C15.52 13.02 16.6579 13.4596 16.9993 13.9888C17.2785 14.4221 17.325 16.5782 17.2692 17.971L17.9764 18C18.0014 17.403 18.0957 14.3842 17.5962 13.6082Z" fill="#7E868E"/>
</g>
<defs>
<clipPath id="clip0_331_133">
<rect width="18" height="18" fill="white"/>
</clipPath>
</defs>
</svg>
