<svg width="18" height="18" viewBox="0 0 18 18" fill="none" xmlns="http://www.w3.org/2000/svg">
<g clip-path="url(#clip0_331_111)">
<path d="M3.54375 17.4376H1.0125V14.0063C1.0125 13.6688 1.2375 13.4438 1.575 13.4438H2.98125C3.31875 13.4438 3.54375 13.6688 3.54375 14.0063V17.4376Z" stroke="#7E868E" stroke-miterlimit="10" stroke-linecap="round" stroke-linejoin="round"/>
<path d="M8.04375 17.4374H5.5125V12.4312C5.5125 12.0937 5.7375 11.8687 6.075 11.8687H7.48125C7.81875 11.8687 8.04375 12.0937 8.04375 12.4312V17.4374Z" stroke="#7E868E" stroke-miterlimit="10" stroke-linecap="round" stroke-linejoin="round"/>
<path d="M12.4875 17.4376H9.95625V11.1938C9.95625 10.8563 10.1813 10.6313 10.5188 10.6313H11.925C12.2625 10.6313 12.4875 10.8563 12.4875 11.1938V17.4376Z" stroke="#7E868E" stroke-miterlimit="10" stroke-linecap="round" stroke-linejoin="round"/>
<path d="M16.9875 17.4375H14.4563V9.5625C14.4563 9.225 14.6813 9 15.0188 9H16.425C16.7625 9 16.9875 9.225 16.9875 9.5625V17.4375Z" stroke="#7E868E" stroke-miterlimit="10" stroke-linecap="round" stroke-linejoin="round"/>
<path d="M16.4813 7.36875V4.78125H13.8938" stroke="#7E868E" stroke-miterlimit="10" stroke-linecap="round" stroke-linejoin="round"/>
<path d="M1.51875 11.475C1.51875 11.475 9.61875 11.3625 16.5375 4.78125" stroke="#7E868E" stroke-miterlimit="10" stroke-linecap="round" stroke-linejoin="round"/>
<path d="M9.90001 2.69995H9.16876H8.71876C8.38126 2.69995 8.10001 2.9812 8.10001 3.3187C8.10001 3.6562 8.38126 3.93745 8.71876 3.93745H9.28126" stroke="#7E868E" stroke-miterlimit="10" stroke-linecap="round" stroke-linejoin="round"/>
<path d="M9.28126 3.9375C9.61876 3.9375 9.90001 4.21875 9.90001 4.55625C9.90001 4.89375 9.61876 5.175 9.28126 5.175H8.10001" stroke="#7E868E" stroke-miterlimit="10" stroke-linecap="round" stroke-linejoin="round"/>
<path d="M9.16876 2.0249V2.6999" stroke="#7E868E" stroke-miterlimit="10" stroke-linecap="round" stroke-linejoin="round"/>
<path d="M9.16876 5.1748V5.8498" stroke="#7E868E" stroke-miterlimit="10" stroke-linecap="round" stroke-linejoin="round"/>
<path d="M9 7.3125C10.864 7.3125 12.375 5.80146 12.375 3.9375C12.375 2.07354 10.864 0.5625 9 0.5625C7.13604 0.5625 5.625 2.07354 5.625 3.9375C5.625 5.80146 7.13604 7.3125 9 7.3125Z" stroke="#7E868E" stroke-miterlimit="10" stroke-linecap="round" stroke-linejoin="round"/>
</g>
<defs>
<clipPath id="clip0_331_111">
<rect width="18" height="18" fill="white"/>
</clipPath>
</defs>
</svg>
